<svg xmlns="http://www.w3.org/2000/svg" version="1.1" xmlns:xlink="http://www.w3.org/1999/xlink" xmlns:svgjs="http://svgjs.dev/svgjs" width="1000" height="232" viewBox="0 0 1000 232"><g transform="matrix(1,0,0,1,-0.6060606060605096,0.31609057302971166)"><svg viewBox="0 0 396 92" data-background-color="#ffffff" preserveAspectRatio="xMidYMid meet" height="232" width="1000" xmlns="http://www.w3.org/2000/svg" xmlns:xlink="http://www.w3.org/1999/xlink"><g id="tight-bounds" transform="matrix(1,0,0,1,0.2400000000000091,-0.12534626171867558)"><svg viewBox="0 0 395.52 92.25069252343737" height="92.25069252343737" width="395.52"><g><svg viewBox="0 0 592.2613929404339 138.1384598848369" height="92.25069252343737" width="395.52"><g><rect width="9.014087461147028" height="100.45524760076776" x="164.13021788466116" y="18.841606142034564" fill="#000000" opacity="1" stroke-width="0" stroke="transparent" fill-opacity="1" class="rect-rb-0" data-fill-palette-color="primary" rx="1%" id="rb-0" data-palette-color="#0063db"></rect></g><g transform="matrix(1,0,0,1,196.7413929404339,19.091494817658358)"><svg viewBox="0 0 395.52 99.95547024952018" height="99.95547024952018" width="395.52"><g><svg viewBox="0 0 395.52 99.95547024952018" height="99.95547024952018" width="395.52"><g><svg viewBox="0 0 395.52 99.95547024952018" height="99.95547024952018" width="395.52"><g transform="matrix(1,0,0,1,0,0)"><svg width="395.52" viewBox="3.65 -38.4 156.28 39.5" height="99.95547024952018" data-palette-color="#0063db"><g class="undefined-text-0" data-fill-palette-color="primary" id="text-0"><path d="M5.6 0.3Q3.75 0.3 3.75-0.4L3.75-0.4Q3.75-2.5 3.9-6.75L3.9-6.75 4-13.05Q4-16.55 3.85-23.5L3.85-23.5Q3.65-29.65 3.65-33.9L3.65-33.9Q3.65-37.5 4.95-37.5L4.95-37.5Q8.3-37.5 10.13-35.35 11.95-33.2 11.95-29.65L11.95-29.65Q11.95-25.65 8.75-21.35L8.75-21.35Q11.4-18.7 12.48-16.3 13.55-13.9 13.55-10.55L13.55-10.55Q13.55-8.5 13.43-7.28 13.3-6.05 12.95-5L12.95-5Q12.6-3.9 11.98-3.1 11.35-2.3 10.3-1.6L10.3-1.6Q9.3-0.9 7.7-0.2L7.7-0.2Q7.1-0.05 6.7 0.05L6.7 0.05Q6.05 0.3 5.7 0.3L5.7 0.3 5.6 0.3ZM5.55-21.6Q6.65-21.6 7.65-22.55 8.65-23.5 9.3-25.05L9.3-25.05Q9.95-26.5 10.3-28.08 10.65-29.65 10.65-30.95L10.65-30.95Q10.65-32.7 9.38-34.25 8.1-35.8 6.5-35.8L6.5-35.8Q5.2-35.8 5.2-33.65L5.2-33.65Q5.2-30.3 5.3-27.65L5.3-27.65 5.4-21.65 5.55-21.6ZM5.95-1.65Q7.65-1.65 9.08-2.68 10.5-3.7 11.33-5.4 12.15-7.1 12.15-9.05L12.15-9.05Q12.15-18 7.85-19.8L7.85-19.8Q7.45-19.8 6.55-19.55L6.55-19.55Q5.7-19.25 5.4-19.25L5.4-19.25Q5.65-11.1 5.65-1.7L5.65-1.7 5.8-1.7 5.95-1.65ZM29.25 0Q28.85 0 28.57-0.25 28.3-0.5 28.3-0.85L28.3-0.85 28.3-7.4Q28.3-8 25.75-8.5 23.2-9 21.55-9L21.55-9Q21.45-9 21.22-8.25 21-7.5 20.9-7.15L20.9-7.15Q20.25-4.55 19.6-1.6L19.6-1.6 19.35-0.5Q19.25-0.1 18.85-0.1L18.85-0.1Q18.45-0.1 18.12-0.35 17.8-0.6 17.8-0.95L17.8-0.95 17.85-1.05 17.85-1.1 18.4-3.6Q19-5.95 19.45-8.2L19.45-8.2Q19.95-10.75 20.2-11.5L20.2-11.5Q20.6-13.15 21.8-19.75L21.8-19.75 22.1-21.4Q23.4-29.1 23.9-31.1L23.9-31.1Q24.15-32.3 24.8-34.65L24.8-34.65Q25.05-35.65 25.5-36.65L25.5-36.65Q25.95-37.5 26.25-37.5L26.25-37.5Q27.05-37.5 27.4-37L27.4-37Q27.65-36.55 28.17-32.05 28.7-27.55 29.1-22.95L29.1-22.95 29.75-14.65Q29.75-12.5 30.05-8.15L30.05-8.15Q30.35-3.75 30.35-1.6L30.35-1.6 30.35-1.4Q30.35-0.85 30.2-0.4L30.2-0.4Q30 0 29.25 0L29.25 0ZM27.25-9.65Q28.25-9.65 28.25-10.15L28.25-10.15Q28.25-13.25 27.9-18.63 27.55-24 27.15-28.1L27.15-28.1Q27.05-29.85 26.75-31.95L26.75-31.95 26.55-33.9Q26.55-33.85 26.45-34.45L26.45-34.45 26.35-35.05Q25.95-33.95 25.57-32 25.2-30.05 24.8-27.4L24.8-27.4Q23.6-19.95 22.75-16.2L22.75-16.2 22.3-14.5Q21.55-12 21.55-10.7L21.55-10.7 21.55-10.4Q23.75-9.7 26.6-9.7L26.6-9.7 26.9-9.7Q27.05-9.65 27.25-9.65L27.25-9.65ZM42 0.3Q41.5 0.3 41.25-0.08 41-0.45 41-1L41-1 41-5.45 41-9.9 40.9-17.9Q40.75-23.25 40.75-25.9L40.75-25.9 40.8-27.35 40.8-30.6Q40.8-36 40.7-36L40.7-36 35.05-36Q34.65-36 34.32-36.2 34-36.4 34-36.75L34-36.75Q34-37.15 34.15-37.3 34.3-37.45 34.95-37.55L34.95-37.55Q35.65-37.7 36.95-37.7L36.95-37.7 41.95-37.7 47.45-37.75Q48.05-37.75 48.27-37.55 48.5-37.35 48.5-36.9L48.5-36.9Q48.5-36.15 47.55-36.15L47.55-36.15 45.3-36.15 43.1-36.15 42.65-36.1 42.7-33.2 42.7-29.3 42.7-9 42.7-4.85 42.75-1.15 42.75-1.05Q42.75-0.65 42.7-0.38 42.65-0.1 42.5 0.05L42.5 0.05Q42.35 0.3 42 0.3L42 0.3ZM60.04 0.95Q58.89 0.95 57.89 0.45 56.89-0.05 56.24-0.85L56.24-0.85Q55.59-1.6 55.09-2.7 54.59-3.8 54.29-4.9L54.29-4.9Q53.79-6.6 53.54-9.15L53.54-9.15 53.44-10.7Q53.44-11.2 53.42-11.35 53.39-11.5 53.39-11.55L53.39-11.55Q53.14-14 52.77-22.35 52.39-30.7 52.39-35.35L52.39-35.35 52.39-35.7 52.39-36.1Q52.39-37.4 53.14-37.4L53.14-37.4Q54.19-37.4 54.19-36.2L54.19-36.2 54.19-35.85 54.14-35.45Q54.14-29.65 54.49-21.73 54.84-13.8 55.19-10.3L55.19-10.3Q55.44-8.1 56.04-5.8L56.04-5.8Q56.44-4.25 56.92-3.2 57.39-2.15 58.14-1.45L58.14-1.45Q59.04-0.65 59.89-0.65L59.89-0.65Q60.74-0.65 61.42-1.05 62.09-1.45 62.44-2.1L62.44-2.1Q62.79-2.65 63.02-3.53 63.24-4.4 63.29-5.2L63.29-5.2Q63.34-5.7 63.34-6.85L63.34-6.85 63.34-12.55Q63.34-16.35 63.14-21.9L63.14-21.9 62.94-28.3 62.84-32.55Q62.69-35.35 62.69-36.8L62.69-36.8Q62.69-37.35 62.99-37.65 63.29-37.95 63.69-37.95L63.69-37.95Q64.09-37.95 64.37-37.65 64.64-37.35 64.64-36.8L64.64-36.8 64.64-33Q64.64-30.5 64.69-28.5L64.69-28.5 64.69-24Q64.69-19.15 64.79-15.5L64.79-15.5Q64.84-11.8 64.84-7.2L64.84-7.2Q64.84-5.95 64.74-5 64.64-4.05 64.34-3L64.34-3Q64.04-1.8 63.52-0.98 62.99-0.15 62.14 0.4L62.14 0.4Q61.19 0.95 60.04 0.95L60.04 0.95ZM78.29 1.05Q71.34 1.05 71.34-23L71.34-23 71.34-25Q71.34-29.2 71.84-32.3L71.84-32.3Q72.14-34.25 72.67-35.5 73.19-36.75 74.09-37.5L74.09-37.5Q74.94-38.35 76.29-38.35L76.29-38.35Q77.49-38.35 78.49-37.88 79.49-37.4 80.14-36.65L80.14-36.65Q80.69-35.95 81.14-34.8 81.59-33.65 81.84-32.6L81.84-32.6 82.24-30.25Q83.44-21.7 83.44-15.1L83.44-15.1 83.44-14.95Q83.44-12.45 83.34-10.35L83.34-10.35Q83.24-7.85 82.79-5.1L82.79-5.1Q82.59-3.75 82.22-2.75 81.84-1.75 81.24-0.75L81.24-0.75Q80.19 1.05 78.29 1.05L78.29 1.05ZM78.39-0.35Q79.19-0.35 79.84-1.28 80.49-2.2 80.84-3.85L80.84-3.85Q81.64-7.35 81.84-10.7L81.84-10.7Q81.94-13.4 81.94-15.95L81.94-15.95 81.94-16.15 81.89-21.15Q81.79-23.85 81.29-28.15L81.29-28.15Q80.89-31.2 79.64-34.4L79.64-34.4Q79.14-35.65 78.32-36.35 77.49-37.05 76.54-37.05L76.54-37.05Q75.69-37.05 75.04-36.25 74.39-35.45 73.99-34L73.99-34Q73.09-30.65 72.99-27.8L72.99-27.8Q72.84-25.35 72.84-22.75L72.84-22.75 72.84-20.3Q72.84-16.95 73.49-11.8L73.49-11.8Q73.89-8.55 74.49-6.15 75.09-3.75 76.09-2.1L76.09-2.1Q77.09-0.35 78.39-0.35L78.39-0.35ZM92.49 0.1Q91.89 0.1 91.29-0.2 90.69-0.5 90.69-0.9L90.69-0.9Q90.69-1.2 91.09-1.9L91.09-1.9Q91.49-2.55 91.44-2.9L91.44-2.9 91.29-7.3 90.94-20.95 90.84-27Q90.79-32.55 90.59-33.95L90.59-33.95Q90.49-34.5 90.19-35.2L90.19-35.2Q89.84-36.15 89.84-36.55L89.84-36.55Q89.84-37.75 93.64-37.75L93.64-37.75 93.89-37.75Q96.44-37.75 98.29-36L98.29-36Q99.74-34.65 100.89-31.75L100.89-31.75Q101.69-29.45 102.09-26.6L102.09-26.6Q102.29-25.1 102.44-22L102.44-22 102.44-20.45Q102.44-17.35 101.61-13.73 100.79-10.1 99.29-6.95L99.29-6.95Q98.39-4.95 96.96-3.35 95.54-1.75 94.24-0.83 92.94 0.1 92.49 0.1L92.49 0.1ZM92.99-2.45L93.24-2.45Q95.09-3.4 96.54-5.23 97.99-7.05 98.84-9.25L98.84-9.25Q99.59-11.1 100.09-13.48 100.59-15.85 100.79-17.9L100.79-17.9Q100.94-19.7 100.94-21.35L100.94-21.35Q100.94-35.95 92.89-35.95L92.89-35.95Q91.84-35.95 91.84-35.4L91.84-35.4Q91.84-33.65 92.04-31.25L92.04-31.25Q92.24-28.8 92.24-27.1L92.24-27.1Q92.24-24.35 92.64-17.55L92.64-17.55Q92.99-11.65 92.99-8.05L92.99-8.05 92.99-2.45ZM111.44 0.3Q110.24 0.3 109.76 0.08 109.29-0.15 109.29-0.8L109.29-0.8 109.29-1.75Q109.24-2.15 109.24-2.65L109.24-2.65 109.24-2.75 109.29-10.05 109.24-30.7Q109.24-33.9 109.14-36.25L109.14-36.25Q109.14-36.85 109.39-37.25 109.64-37.65 110.04-37.65L110.04-37.65 113.14-37.65Q113.84-37.65 114.19-37.55L114.19-37.55Q114.69-37.4 114.69-36.7L114.69-36.7Q114.69-36.3 114.39-36.05 114.09-35.8 113.74-35.75L113.74-35.75 112.89-35.75 112.09-35.8 111.29-35.85Q110.94-35.85 110.81-35.73 110.69-35.6 110.69-35.25L110.69-35.25Q110.69-32.9 110.74-31L110.74-31 110.74-26.75 110.74-20.5Q110.74-20.4 110.84-20.4L110.84-20.4 110.89-20.4 110.94-20.4Q112.19-20.5 113.64-20.5L113.64-20.5Q114.44-20.5 114.44-19.8L114.44-19.8Q114.44-19.3 114.26-19.13 114.09-18.95 113.69-18.95L113.69-18.95 110.84-18.95Q110.64-18.95 110.64-18.7L110.64-18.7 110.74-11.3Q110.84-7.85 110.84-3.35L110.84-3.35 110.84-1.5 112.99-1.5 115.09-1.5 115.54-1.5Q116.44-1.5 116.44-0.85L116.44-0.85Q116.44-0.05 115.99 0.1L115.99 0.1Q115.39 0.3 113.54 0.3L113.54 0.3 111.44 0.3ZM123.93 1.1Q123.03 1.1 122.56 1.03 122.08 0.95 121.53 0.7L121.53 0.7Q120.93 0.4 120.63-0.15L120.63-0.15Q120.63-0.75 121.18-0.75L121.18-0.75Q121.73-0.75 122.58-0.4L122.58-0.4Q123.38 0 123.93 0L123.93 0Q125.03 0 125.96-0.9 126.88-1.8 127.38-3.25L127.38-3.25Q128.38-6.1 128.38-8.3L128.38-8.3Q128.38-10.75 127.68-13.25 126.98-15.75 125.83-17.95L125.83-17.95Q125.58-18.5 124.98-19.6L124.98-19.6Q123.73-22.1 123.08-23.5 122.43-24.9 121.93-26.6L121.93-26.6Q121.23-28.85 121.23-31.45L121.23-31.45Q121.23-33.1 121.76-34.63 122.28-36.15 123.43-37.25L123.43-37.25Q124.68-38.4 126.23-38.4L126.23-38.4Q126.83-38.4 127.68-37.93 128.53-37.45 128.53-37L128.53-37Q128.53-36.6 128.23-36.6L128.23-36.6Q127.93-36.6 127.43-36.85L127.43-36.85Q126.98-37.1 126.58-37.1L126.58-37.1Q125.43-37.1 124.56-36.25 123.68-35.4 123.28-34.15L123.28-34.15Q122.93-33.1 122.93-31.85L122.93-31.85Q122.93-29.9 123.43-27.83 123.93-25.75 124.78-23.95L124.78-23.95 126.53-20.3 127.03-19.25Q128.08-17.1 128.66-15.7 129.23-14.3 129.63-12.55L129.63-12.55Q130.18-10.2 130.18-8.05L130.18-8.05Q130.18-5.15 128.68-2.15L128.68-2.15Q127.93-0.7 126.68 0.2 125.43 1.1 123.93 1.1L123.93 1.1ZM135.78 0.45Q135.38 0.45 135.03-0.2L135.03-0.2Q136.03-1.95 136.56-4.25 137.08-6.55 137.48-9.95L137.48-9.95Q137.78-12.95 138.08-14.35L138.08-14.35 140.38-30.95Q140.53-31.95 140.63-32.7L140.63-32.7Q141.03-35.4 141.03-36.6L141.03-36.6Q140.48-36.6 139.38-36.45L139.38-36.45 137.68-36.35Q135.43-36.35 135.43-37.35L135.43-37.35 135.78-37.75Q136.08-37.65 136.98-37.65L136.98-37.65Q137.68-37.65 139.33-37.9L139.33-37.9Q140.63-38.15 141.68-38.15L141.68-38.15Q142.48-38.15 142.48-37.25L142.48-37.25Q141.93-36.05 141.68-32.45L141.68-32.45Q141.58-30.7 141.48-30.25L141.48-30.25 139.98-18.9Q138.73-9.1 137.98-4.75L137.98-4.75Q137.93-4.25 137.38-2.95L137.38-2.95Q136.83-1.6 136.83-0.95L136.83-0.95 138.48-1.05Q139.53-1.2 140.08-1.2L140.08-1.2Q142.18-1.2 142.18-0.2L142.18-0.2 141.73 0.25Q140.08 0.25 138.78 0.35L138.78 0.35 135.78 0.45ZM158.83 0Q158.43 0 158.15-0.25 157.88-0.5 157.88-0.85L157.88-0.85 157.88-7.4Q157.88-8 155.33-8.5 152.78-9 151.13-9L151.13-9Q151.03-9 150.8-8.25 150.58-7.5 150.48-7.15L150.48-7.15Q149.83-4.55 149.18-1.6L149.18-1.6 148.93-0.5Q148.83-0.1 148.43-0.1L148.43-0.1Q148.03-0.1 147.7-0.35 147.38-0.6 147.38-0.95L147.38-0.95 147.43-1.05 147.43-1.1 147.98-3.6Q148.58-5.95 149.03-8.2L149.03-8.2Q149.53-10.75 149.78-11.5L149.78-11.5Q150.18-13.15 151.38-19.75L151.38-19.75 151.68-21.4Q152.98-29.1 153.48-31.1L153.48-31.1Q153.73-32.3 154.38-34.65L154.38-34.65Q154.63-35.65 155.08-36.65L155.08-36.65Q155.53-37.5 155.83-37.5L155.83-37.5Q156.63-37.5 156.98-37L156.98-37Q157.23-36.55 157.75-32.05 158.28-27.55 158.68-22.95L158.68-22.95 159.33-14.65Q159.33-12.5 159.63-8.15L159.63-8.15Q159.93-3.75 159.93-1.6L159.93-1.6 159.93-1.4Q159.93-0.85 159.78-0.4L159.78-0.4Q159.58 0 158.83 0L158.83 0ZM156.83-9.65Q157.83-9.65 157.83-10.15L157.83-10.15Q157.83-13.25 157.48-18.63 157.13-24 156.73-28.1L156.73-28.1Q156.63-29.85 156.33-31.95L156.33-31.95 156.13-33.9Q156.13-33.85 156.03-34.45L156.03-34.45 155.93-35.05Q155.53-33.95 155.15-32 154.78-30.05 154.38-27.4L154.38-27.4Q153.18-19.95 152.33-16.2L152.33-16.2 151.88-14.5Q151.13-12 151.13-10.7L151.13-10.7 151.13-10.4Q153.33-9.7 156.18-9.7L156.18-9.7 156.48-9.7Q156.63-9.65 156.83-9.65L156.83-9.65Z" fill="#000000" data-fill-palette-color="primary"></path></g></svg></g></svg></g></svg></g></svg></g><g><svg viewBox="0 0 140.53313029003544 138.1384598848369" height="138.1384598848369" width="140.53313029003544"><g><svg xmlns="http://www.w3.org/2000/svg" xmlns:xlink="http://www.w3.org/1999/xlink" version="1.1" x="0" y="0" viewBox="-345.99938363577087 257.94799432773345 99.7517657271382 98.05200567226655" enable-background="new -346 256 100 100" xml:space="preserve" height="138.1384598848369" width="140.53313029003544" class="icon-icon-0" data-fill-palette-color="accent" id="icon-0"><path d="M-246.455 327.152l-16.86-64.454c0 0-1.243-4.756-6.002-4.75l-72.96 0.08c0 0-4.759 0.004-3.515 4.761l15.835 60.538c7.148-15.684 15.203-33.301 15.795-34.599l0.423-0.924 21.84-0.021-1.048 2.253c-5.985 12.87-13.768 29.775-19.236 41.944l62.212-0.067C-249.97 331.912-245.211 331.906-246.455 327.152z" fill="#000000" data-fill-palette-color="accent"></path><path d="M-296.864 290.954l-14.839 0.015c-9.094 19.892-25.758 56.396-26.425 58.074-1.594 4.007 0.346 6.235 1.171 6.957h56.176l-1.875-4.804h-35.137c-0.044 0.002-0.107 0.005-0.184 0.005-1.988 0-3.998-1.204-4.006-3.894-0.002-0.629-0.004-1.579 13.149-30.369C-303.924 306.194-298.966 295.487-296.864 290.954z" fill="#000000" data-fill-palette-color="accent"></path></svg><g></g></g></svg></g></svg></g><defs></defs></svg><rect width="395.52" height="92.25069252343737" fill="none" stroke="none" visibility="hidden"></rect></g></svg></g></svg>